<svg xmlns="http://www.w3.org/2000/svg" viewBox="0 0 271.3 283.5"><path d="M261.6 168.9c0 7.9-3 15.4-8.3 21.2-22.5 24.2-85.1 88.2-117.3 88.3-32.5.1-96.2-64-119.1-88.3-5.4-5.8-8.5-13.4-8.5-21.3V61.3c0-5.2 3.9-9.6 9.1-10.2 38.2-4.6 98.3-34.9 113.8-43 2.3-1.2 5.1-1.2 7.4 0 15.4 8 75.5 38.3 113.7 43 5.2.6 9.1 5 9.1 10.2v107.6h.1z" fill="none" stroke="#029ddf" stroke-width="7" stroke-miterlimit="10"/><path d="M193.7 103.9c1.2 1.2 1.2 3.1 0 4.3l-71.3 71.3-3 3c-1.2 1.2-3.1 1.2-4.3 0l-3-3-35.7-35.7c-1.2-1.2-1.2-3.1 0-4.3l.9-.9c1.2-1.2 3.1-1.2 4.3 0l33.6 33.6c1.2 1.2 3.1 1.2 4.3 0l69.2-69.2c1.2-1.2 3.1-1.2 4.3 0l.7.9z" fill="#029ddf" stroke="#029ddf" stroke-miterlimit="10"/></svg>