<svg version="1.1" id="Слой_1" xmlns="http://www.w3.org/2000/svg" x="0" y="0" viewBox="0 0 247.5 283.5" xml:space="preserve"><style>.st0{fill:none;stroke:#029ddf;stroke-width:7;stroke-miterlimit:10}</style><path class="st0" d="M229.4 127.2c0 65.2-27.5 118.2-61.5 118.2-16.9 0-32.3-13.2-43.4-34.5-11.2-21.4-18.1-51-18.1-83.7 0-23.2 7.7-44.8 17.8-63 18.2-33.1 43.7-55.1 43.7-55.1s61.5 52.9 61.5 118.1z"/><path class="st0" d="M124.5 210.9c-22.3-7.6-47.1-23.2-69.3-45.3-46.3-46-40.4-126.9-40.4-126.9s62.9-4.9 109.4 25.5c-10 18.2-17.8 39.9-17.8 63 .1 32.7 7 62.3 18.1 83.7z"/><path d="M201.9 141.9l-30.5 32.7v97.1c0 1.3-1.1 2.4-2.4 2.4h-1.2c-1.3 0-2.4-1.1-2.4-2.4v-97h0l-30.7-33c-.9-1-.9-2.5.1-3.5l.9-.8c1-.9 2.6-.9 3.5.1l26.3 28.2V98.6c0-1.3 1.1-2.4 2.4-2.4h1.2c1.3 0 2.4 1.1 2.4 2.4v67.1l26-27.9c.9-1 2.5-1 3.4-.1l.9.8c1 .8 1 2.4.1 3.4z" fill="#029ddf" stroke="#029ddf" stroke-miterlimit="10"/></svg>