<svg version="1.1" id="Слой_1" xmlns="http://www.w3.org/2000/svg" x="0" y="0" viewBox="0 0 283.5 264" xml:space="preserve"><style>.st0{fill:none;stroke:#029ddf;stroke-width:7;stroke-miterlimit:10}</style><path class="st0" d="M214.9 154.7v7c0 10.1 8.2 18.3 18.3 18.3h33.7v55.2c0 10.1-8.2 18.3-18.3 18.3H29.8c-10.1 0-18.3-8.2-18.3-18.3V42.9c0 10.1 8.2 18.3 18.3 18.3h218.8c10.1 0 18.3 8.2 18.3 18.3v56.8h-33.7c-10.1.1-18.3 8.3-18.3 18.4z"/><path class="st0" d="M129 18.9L37.1 61.2h-7.3c-10.1 0-18.3-8.2-18.3-18.3v-5.7c0-10.1 8.2-18.3 18.3-18.3H129zm110.8 18.3v24h-49.4l-19.5-42.3h50.6c10.1-.1 18.3 8.1 18.3 18.3z"/><path class="st0" d="M190 61.2H52c-3.5 0-4.6-4.8-1.4-6.2L129 18.9 154.9 7c4.7-2.1 10.2-.1 12.3 4.5l3.4 7.4L190 61.2zm76.9 75.2V180h-33.7c-10.1 0-18.3-8.2-18.3-18.3v-7c0-10.1 8.2-18.3 18.3-18.3h33.7z"/></svg>